<svg width="558" height="277" viewBox="0 0 558 277" fill="none" xmlns="http://www.w3.org/2000/svg">
<rect width="558" height="277" rx="20" fill="#262634"/>
<rect width="557.741" height="197" rx="20" fill="url(#paint0_linear_120_24)"/>
<rect x="139.99" y="120.133" width="279.706" height="36.0677" rx="18.0339" fill="#262634"/>
<path d="M235.522 133.01C235.862 133.01 236.177 133.065 236.467 133.175V133.97H235.867C235.427 133.97 235.207 134.185 235.207 134.615V135.83H236.467V136.85H235.207V143.09H234.082V136.85H233.437V135.83H234.082V134.675C234.082 134.205 234.192 133.81 234.412 133.49C234.642 133.17 235.012 133.01 235.522 133.01ZM239.541 135.665C240.271 135.665 240.821 135.84 241.191 136.19C241.561 136.54 241.746 137.04 241.746 137.69V141.77C241.746 141.92 241.781 142.04 241.851 142.13C241.921 142.21 242.006 142.25 242.106 142.25H242.571V143.03C242.371 143.14 242.121 143.195 241.821 143.195C241.531 143.195 241.281 143.115 241.071 142.955C240.871 142.795 240.741 142.58 240.681 142.31H240.606C240.416 142.61 240.166 142.845 239.856 143.015C239.556 143.175 239.216 143.255 238.836 143.255C238.346 143.255 237.906 143.11 237.516 142.82C237.126 142.53 236.931 141.995 236.931 141.215C236.931 140.285 237.246 139.65 237.876 139.31C238.506 138.96 239.416 138.785 240.606 138.785V137.855C240.606 137.475 240.521 137.185 240.351 136.985C240.191 136.785 239.896 136.685 239.466 136.685C239.066 136.685 238.776 136.795 238.596 137.015C238.426 137.235 238.341 137.5 238.341 137.81V137.99H237.231C237.221 137.94 237.216 137.835 237.216 137.675C237.216 137.035 237.426 136.54 237.846 136.19C238.276 135.84 238.841 135.665 239.541 135.665ZM240.606 139.805C239.776 139.805 239.151 139.9 238.731 140.09C238.321 140.27 238.116 140.62 238.116 141.14C238.116 141.54 238.196 141.825 238.356 141.995C238.526 142.165 238.776 142.25 239.106 142.25C239.496 142.25 239.841 142.09 240.141 141.77C240.451 141.45 240.606 141.01 240.606 140.45V139.805ZM245.63 135.665C246.28 135.665 246.79 135.855 247.16 136.235C247.53 136.615 247.715 137.09 247.715 137.66L247.7 137.93H246.53V137.795C246.53 137.475 246.45 137.21 246.29 137C246.13 136.78 245.875 136.67 245.525 136.67C245.165 136.67 244.91 136.77 244.76 136.97C244.62 137.17 244.55 137.4 244.55 137.66C244.55 137.96 244.655 138.19 244.865 138.35C245.085 138.5 245.42 138.65 245.87 138.8C246.28 138.94 246.615 139.085 246.875 139.235C247.145 139.375 247.375 139.59 247.565 139.88C247.755 140.17 247.85 140.55 247.85 141.02C247.85 141.77 247.64 142.33 247.22 142.7C246.8 143.07 246.24 143.255 245.54 143.255C244.76 143.255 244.175 143.05 243.785 142.64C243.395 142.23 243.2 141.725 243.2 141.125C243.2 141.015 243.2 140.94 243.2 140.9C243.21 140.86 243.215 140.835 243.215 140.825H244.4V140.975C244.4 141.405 244.51 141.73 244.73 141.95C244.95 142.16 245.235 142.265 245.585 142.265C245.895 142.265 246.155 142.17 246.365 141.98C246.575 141.79 246.68 141.525 246.68 141.185C246.68 140.925 246.615 140.715 246.485 140.555C246.365 140.385 246.21 140.255 246.02 140.165C245.84 140.065 245.585 139.955 245.255 139.835C244.845 139.685 244.515 139.545 244.265 139.415C244.025 139.275 243.815 139.07 243.635 138.8C243.465 138.53 243.38 138.175 243.38 137.735C243.38 137.095 243.58 136.59 243.98 136.22C244.39 135.85 244.94 135.665 245.63 135.665ZM251.3 136.85H250.34V141.59C250.34 141.8 250.395 141.965 250.505 142.085C250.615 142.195 250.775 142.25 250.985 142.25H251.3V143.03C251.21 143.09 251.09 143.135 250.94 143.165C250.79 143.205 250.64 143.225 250.49 143.225C250.04 143.225 249.71 143.065 249.5 142.745C249.3 142.425 249.2 142.03 249.2 141.56V136.85H248.57V135.83H249.2L249.455 133.82H250.34V135.83H251.3V136.85ZM257.764 135.665C258.494 135.665 259.044 135.84 259.414 136.19C259.784 136.54 259.969 137.04 259.969 137.69V141.77C259.969 141.92 260.004 142.04 260.074 142.13C260.144 142.21 260.229 142.25 260.329 142.25H260.794V143.03C260.594 143.14 260.344 143.195 260.044 143.195C259.754 143.195 259.504 143.115 259.294 142.955C259.094 142.795 258.964 142.58 258.904 142.31H258.829C258.639 142.61 258.389 142.845 258.079 143.015C257.779 143.175 257.439 143.255 257.059 143.255C256.569 143.255 256.129 143.11 255.739 142.82C255.349 142.53 255.154 141.995 255.154 141.215C255.154 140.285 255.469 139.65 256.099 139.31C256.729 138.96 257.639 138.785 258.829 138.785V137.855C258.829 137.475 258.744 137.185 258.574 136.985C258.414 136.785 258.119 136.685 257.689 136.685C257.289 136.685 256.999 136.795 256.819 137.015C256.649 137.235 256.564 137.5 256.564 137.81V137.99H255.454C255.444 137.94 255.439 137.835 255.439 137.675C255.439 137.035 255.649 136.54 256.069 136.19C256.499 135.84 257.064 135.665 257.764 135.665ZM258.829 139.805C257.999 139.805 257.374 139.9 256.954 140.09C256.544 140.27 256.339 140.62 256.339 141.14C256.339 141.54 256.419 141.825 256.579 141.995C256.749 142.165 256.999 142.25 257.329 142.25C257.719 142.25 258.064 142.09 258.364 141.77C258.674 141.45 258.829 141.01 258.829 140.45V139.805ZM264.633 135.665C265.213 135.665 265.658 135.84 265.968 136.19C266.278 136.53 266.433 137.09 266.433 137.87V143.09H265.308V137.945C265.308 137.475 265.218 137.15 265.038 136.97C264.868 136.78 264.613 136.685 264.273 136.685C263.903 136.685 263.588 136.865 263.328 137.225C263.068 137.575 262.938 138.055 262.938 138.665V143.09H261.798V135.83H262.653L262.818 136.685H262.893C263.273 136.005 263.853 135.665 264.633 135.665ZM271.712 142.25H271.637C271.467 142.58 271.242 142.83 270.962 143C270.692 143.17 270.387 143.255 270.047 143.255C269.337 143.255 268.782 142.945 268.382 142.325C267.992 141.695 267.797 140.74 267.797 139.46C267.797 138.2 267.997 137.255 268.397 136.625C268.807 135.985 269.332 135.665 269.972 135.665C270.322 135.665 270.632 135.745 270.902 135.905C271.182 136.055 271.387 136.26 271.517 136.52H271.592V133.115H272.717V143.09H271.862L271.712 142.25ZM270.287 136.685C269.847 136.685 269.517 136.885 269.297 137.285C269.087 137.675 268.982 138.315 268.982 139.205V139.715C268.982 140.605 269.087 141.25 269.297 141.65C269.517 142.05 269.847 142.25 270.287 142.25C271.157 142.25 271.592 141.405 271.592 139.715V139.25C271.592 137.54 271.157 136.685 270.287 136.685ZM279.991 135.665C280.811 135.665 281.416 135.935 281.806 136.475C282.196 137.015 282.391 137.885 282.391 139.085V139.805H278.461C278.471 140.645 278.601 141.265 278.851 141.665C279.111 142.055 279.511 142.25 280.051 142.25C280.411 142.25 280.701 142.105 280.921 141.815C281.151 141.515 281.266 141.12 281.266 140.63H282.391C282.391 141.43 282.171 142.07 281.731 142.55C281.301 143.02 280.731 143.255 280.021 143.255C279.091 143.255 278.396 142.955 277.936 142.355C277.486 141.755 277.261 140.795 277.261 139.475C277.261 138.175 277.486 137.215 277.936 136.595C278.386 135.975 279.071 135.665 279.991 135.665ZM279.991 136.685C279.501 136.685 279.136 136.86 278.896 137.21C278.666 137.55 278.526 138.075 278.476 138.785H281.206C281.206 137.385 280.801 136.685 279.991 136.685ZM285.18 133.01C285.52 133.01 285.835 133.065 286.125 133.175V133.97H285.525C285.085 133.97 284.865 134.185 284.865 134.615V135.83H286.125V136.85H284.865V143.09H283.74V136.85H283.095V135.83H283.74V134.675C283.74 134.205 283.85 133.81 284.07 133.49C284.3 133.17 284.67 133.01 285.18 133.01ZM288.153 133.01C288.493 133.01 288.808 133.065 289.098 133.175V133.97H288.498C288.058 133.97 287.838 134.185 287.838 134.615V135.83H289.098V136.85H287.838V143.09H286.713V136.85H286.068V135.83H286.713V134.675C286.713 134.205 286.823 133.81 287.043 133.49C287.273 133.17 287.643 133.01 288.153 133.01ZM292.248 135.665C293.978 135.665 294.843 136.935 294.843 139.475C294.843 141.995 293.978 143.255 292.248 143.255C290.508 143.255 289.638 141.995 289.638 139.475C289.638 136.935 290.508 135.665 292.248 135.665ZM292.248 136.685C291.298 136.685 290.823 137.525 290.823 139.205V139.715C290.823 141.405 291.298 142.25 292.248 142.25C293.188 142.25 293.658 141.405 293.658 139.715V139.205C293.658 138.375 293.538 137.75 293.298 137.33C293.068 136.9 292.718 136.685 292.248 136.685ZM298.532 135.665C298.652 135.665 298.762 135.68 298.862 135.71C298.962 135.74 299.027 135.76 299.057 135.77V136.955H298.682C298.292 136.955 297.972 137.09 297.722 137.36C297.472 137.63 297.347 138.065 297.347 138.665V143.09H296.207V135.83H297.062L297.227 136.79H297.302C297.402 136.47 297.552 136.205 297.752 135.995C297.952 135.775 298.212 135.665 298.532 135.665ZM302.057 136.85H301.097V141.59C301.097 141.8 301.152 141.965 301.262 142.085C301.372 142.195 301.532 142.25 301.742 142.25H302.057V143.03C301.967 143.09 301.847 143.135 301.697 143.165C301.547 143.205 301.397 143.225 301.247 143.225C300.797 143.225 300.467 143.065 300.257 142.745C300.057 142.425 299.957 142.03 299.957 141.56V136.85H299.327V135.83H299.957L300.212 133.82H301.097V135.83H302.057V136.85ZM302.986 133.115H304.126V143.09H302.986V133.115ZM308.101 135.665C308.921 135.665 309.526 135.935 309.916 136.475C310.306 137.015 310.501 137.885 310.501 139.085V139.805H306.571C306.581 140.645 306.711 141.265 306.961 141.665C307.221 142.055 307.621 142.25 308.161 142.25C308.521 142.25 308.811 142.105 309.031 141.815C309.261 141.515 309.376 141.12 309.376 140.63H310.501C310.501 141.43 310.281 142.07 309.841 142.55C309.411 143.02 308.841 143.255 308.131 143.255C307.201 143.255 306.506 142.955 306.046 142.355C305.596 141.755 305.371 140.795 305.371 139.475C305.371 138.175 305.596 137.215 306.046 136.595C306.496 135.975 307.181 135.665 308.101 135.665ZM308.101 136.685C307.611 136.685 307.246 136.86 307.006 137.21C306.776 137.55 306.636 138.075 306.586 138.785H309.316C309.316 137.385 308.911 136.685 308.101 136.685ZM313.965 135.665C314.615 135.665 315.125 135.855 315.495 136.235C315.865 136.615 316.05 137.09 316.05 137.66L316.035 137.93H314.865V137.795C314.865 137.475 314.785 137.21 314.625 137C314.465 136.78 314.21 136.67 313.86 136.67C313.5 136.67 313.245 136.77 313.095 136.97C312.955 137.17 312.885 137.4 312.885 137.66C312.885 137.96 312.99 138.19 313.2 138.35C313.42 138.5 313.755 138.65 314.205 138.8C314.615 138.94 314.95 139.085 315.21 139.235C315.48 139.375 315.71 139.59 315.9 139.88C316.09 140.17 316.185 140.55 316.185 141.02C316.185 141.77 315.975 142.33 315.555 142.7C315.135 143.07 314.575 143.255 313.875 143.255C313.095 143.255 312.51 143.05 312.12 142.64C311.73 142.23 311.535 141.725 311.535 141.125C311.535 141.015 311.535 140.94 311.535 140.9C311.545 140.86 311.55 140.835 311.55 140.825H312.735V140.975C312.735 141.405 312.845 141.73 313.065 141.95C313.285 142.16 313.57 142.265 313.92 142.265C314.23 142.265 314.49 142.17 314.7 141.98C314.91 141.79 315.015 141.525 315.015 141.185C315.015 140.925 314.95 140.715 314.82 140.555C314.7 140.385 314.545 140.255 314.355 140.165C314.175 140.065 313.92 139.955 313.59 139.835C313.18 139.685 312.85 139.545 312.6 139.415C312.36 139.275 312.15 139.07 311.97 138.8C311.8 138.53 311.715 138.175 311.715 137.735C311.715 137.095 311.915 136.59 312.315 136.22C312.725 135.85 313.275 135.665 313.965 135.665ZM319.605 135.665C320.255 135.665 320.765 135.855 321.135 136.235C321.505 136.615 321.69 137.09 321.69 137.66L321.675 137.93H320.505V137.795C320.505 137.475 320.425 137.21 320.265 137C320.105 136.78 319.85 136.67 319.5 136.67C319.14 136.67 318.885 136.77 318.735 136.97C318.595 137.17 318.525 137.4 318.525 137.66C318.525 137.96 318.63 138.19 318.84 138.35C319.06 138.5 319.395 138.65 319.845 138.8C320.255 138.94 320.59 139.085 320.85 139.235C321.12 139.375 321.35 139.59 321.54 139.88C321.73 140.17 321.825 140.55 321.825 141.02C321.825 141.77 321.615 142.33 321.195 142.7C320.775 143.07 320.215 143.255 319.515 143.255C318.735 143.255 318.15 143.05 317.76 142.64C317.37 142.23 317.175 141.725 317.175 141.125C317.175 141.015 317.175 140.94 317.175 140.9C317.185 140.86 317.19 140.835 317.19 140.825H318.375V140.975C318.375 141.405 318.485 141.73 318.705 141.95C318.925 142.16 319.21 142.265 319.56 142.265C319.87 142.265 320.13 142.17 320.34 141.98C320.55 141.79 320.655 141.525 320.655 141.185C320.655 140.925 320.59 140.715 320.46 140.555C320.34 140.385 320.185 140.255 319.995 140.165C319.815 140.065 319.56 139.955 319.23 139.835C318.82 139.685 318.49 139.545 318.24 139.415C318 139.275 317.79 139.07 317.61 138.8C317.44 138.53 317.355 138.175 317.355 137.735C317.355 137.095 317.555 136.59 317.955 136.22C318.365 135.85 318.915 135.665 319.605 135.665Z" fill="white"/>
<path d="M249.05 39.4228V47.7778H247.835V39.4228H245.27V38.3278H251.63V39.4228H249.05ZM253.819 40.3528C255.549 40.3528 256.414 41.6228 256.414 44.1628C256.414 46.6828 255.549 47.9428 253.819 47.9428C252.079 47.9428 251.209 46.6828 251.209 44.1628C251.209 41.6228 252.079 40.3528 253.819 40.3528ZM253.819 41.3728C252.869 41.3728 252.394 42.2128 252.394 43.8928V44.4028C252.394 46.0928 252.869 46.9378 253.819 46.9378C254.759 46.9378 255.229 46.0928 255.229 44.4028V43.8928C255.229 43.0628 255.109 42.4378 254.869 42.0178C254.639 41.5878 254.289 41.3728 253.819 41.3728ZM259.863 41.5378H258.903V46.2778C258.903 46.4878 258.958 46.6528 259.068 46.7728C259.178 46.8828 259.338 46.9378 259.548 46.9378H259.863V47.7178C259.773 47.7778 259.653 47.8228 259.503 47.8528C259.353 47.8928 259.203 47.9128 259.053 47.9128C258.603 47.9128 258.273 47.7528 258.063 47.4328C257.863 47.1128 257.763 46.7178 257.763 46.2478V41.5378H257.133V40.5178H257.763L258.018 38.5078H258.903V40.5178H259.863V41.5378ZM263.178 40.3528C263.908 40.3528 264.458 40.5278 264.828 40.8778C265.198 41.2278 265.383 41.7278 265.383 42.3778V46.4578C265.383 46.6078 265.418 46.7278 265.488 46.8178C265.558 46.8978 265.643 46.9378 265.743 46.9378H266.208V47.7178C266.008 47.8278 265.758 47.8828 265.458 47.8828C265.168 47.8828 264.918 47.8028 264.708 47.6428C264.508 47.4828 264.378 47.2678 264.318 46.9978H264.243C264.053 47.2978 263.803 47.5328 263.493 47.7028C263.193 47.8628 262.853 47.9428 262.473 47.9428C261.983 47.9428 261.543 47.7978 261.153 47.5078C260.763 47.2178 260.568 46.6828 260.568 45.9028C260.568 44.9728 260.883 44.3378 261.513 43.9978C262.143 43.6478 263.053 43.4728 264.243 43.4728V42.5428C264.243 42.1628 264.158 41.8728 263.988 41.6728C263.828 41.4728 263.533 41.3728 263.103 41.3728C262.703 41.3728 262.413 41.4828 262.233 41.7028C262.063 41.9228 261.978 42.1878 261.978 42.4978V42.6778H260.868C260.858 42.6278 260.853 42.5228 260.853 42.3628C260.853 41.7228 261.063 41.2278 261.483 40.8778C261.913 40.5278 262.478 40.3528 263.178 40.3528ZM264.243 44.4928C263.413 44.4928 262.788 44.5878 262.368 44.7778C261.958 44.9578 261.753 45.3078 261.753 45.8278C261.753 46.2278 261.833 46.5128 261.993 46.6828C262.163 46.8528 262.413 46.9378 262.743 46.9378C263.133 46.9378 263.478 46.7778 263.778 46.4578C264.088 46.1378 264.243 45.6978 264.243 45.1378V44.4928ZM267.077 37.8028H268.217V47.7778H267.077V37.8028ZM276.511 38.3278C277.221 38.3278 277.806 38.5428 278.266 38.9728C278.736 39.3928 278.971 39.9478 278.971 40.6378C278.971 41.1578 278.831 41.6128 278.551 42.0028C278.281 42.3928 277.936 42.6628 277.516 42.8128V42.8578C277.996 43.0178 278.391 43.3128 278.701 43.7428C279.021 44.1728 279.181 44.6828 279.181 45.2728C279.181 45.7828 279.061 46.2278 278.821 46.6078C278.581 46.9878 278.256 47.2778 277.846 47.4778C277.446 47.6778 277.001 47.7778 276.511 47.7778H272.926V38.3278H276.511ZM276.166 42.3778C276.616 42.3778 276.981 42.2328 277.261 41.9428C277.541 41.6528 277.681 41.3028 277.681 40.8928C277.681 40.4128 277.551 40.0478 277.291 39.7978C277.041 39.5478 276.696 39.4228 276.256 39.4228H274.141V42.3778H276.166ZM276.361 46.6678C276.821 46.6678 277.196 46.5328 277.486 46.2628C277.776 45.9828 277.921 45.5978 277.921 45.1078C277.921 44.6678 277.766 44.2878 277.456 43.9678C277.156 43.6478 276.761 43.4878 276.271 43.4878H274.141V46.6678H276.361ZM282.66 40.3528C283.39 40.3528 283.94 40.5278 284.31 40.8778C284.68 41.2278 284.865 41.7278 284.865 42.3778V46.4578C284.865 46.6078 284.9 46.7278 284.97 46.8178C285.04 46.8978 285.125 46.9378 285.225 46.9378H285.69V47.7178C285.49 47.8278 285.24 47.8828 284.94 47.8828C284.65 47.8828 284.4 47.8028 284.19 47.6428C283.99 47.4828 283.86 47.2678 283.8 46.9978H283.725C283.535 47.2978 283.285 47.5328 282.975 47.7028C282.675 47.8628 282.335 47.9428 281.955 47.9428C281.465 47.9428 281.025 47.7978 280.635 47.5078C280.245 47.2178 280.05 46.6828 280.05 45.9028C280.05 44.9728 280.365 44.3378 280.995 43.9978C281.625 43.6478 282.535 43.4728 283.725 43.4728V42.5428C283.725 42.1628 283.64 41.8728 283.47 41.6728C283.31 41.4728 283.015 41.3728 282.585 41.3728C282.185 41.3728 281.895 41.4828 281.715 41.7028C281.545 41.9228 281.46 42.1878 281.46 42.4978V42.6778H280.35C280.34 42.6278 280.335 42.5228 280.335 42.3628C280.335 41.7228 280.545 41.2278 280.965 40.8778C281.395 40.5278 281.96 40.3528 282.66 40.3528ZM283.725 44.4928C282.895 44.4928 282.27 44.5878 281.85 44.7778C281.44 44.9578 281.235 45.3078 281.235 45.8278C281.235 46.2278 281.315 46.5128 281.475 46.6828C281.645 46.8528 281.895 46.9378 282.225 46.9378C282.615 46.9378 282.96 46.7778 283.26 46.4578C283.57 46.1378 283.725 45.6978 283.725 45.1378V44.4928ZM286.559 37.8028H287.699V47.7778H286.559V37.8028ZM291.449 40.3528C292.179 40.3528 292.729 40.5278 293.099 40.8778C293.469 41.2278 293.654 41.7278 293.654 42.3778V46.4578C293.654 46.6078 293.689 46.7278 293.759 46.8178C293.829 46.8978 293.914 46.9378 294.014 46.9378H294.479V47.7178C294.279 47.8278 294.029 47.8828 293.729 47.8828C293.439 47.8828 293.189 47.8028 292.979 47.6428C292.779 47.4828 292.649 47.2678 292.589 46.9978H292.514C292.324 47.2978 292.074 47.5328 291.764 47.7028C291.464 47.8628 291.124 47.9428 290.744 47.9428C290.254 47.9428 289.814 47.7978 289.424 47.5078C289.034 47.2178 288.839 46.6828 288.839 45.9028C288.839 44.9728 289.154 44.3378 289.784 43.9978C290.414 43.6478 291.324 43.4728 292.514 43.4728V42.5428C292.514 42.1628 292.429 41.8728 292.259 41.6728C292.099 41.4728 291.804 41.3728 291.374 41.3728C290.974 41.3728 290.684 41.4828 290.504 41.7028C290.334 41.9228 290.249 42.1878 290.249 42.4978V42.6778H289.139C289.129 42.6278 289.124 42.5228 289.124 42.3628C289.124 41.7228 289.334 41.2278 289.754 40.8778C290.184 40.5278 290.749 40.3528 291.449 40.3528ZM292.514 44.4928C291.684 44.4928 291.059 44.5878 290.639 44.7778C290.229 44.9578 290.024 45.3078 290.024 45.8278C290.024 46.2278 290.104 46.5128 290.264 46.6828C290.434 46.8528 290.684 46.9378 291.014 46.9378C291.404 46.9378 291.749 46.7778 292.049 46.4578C292.359 46.1378 292.514 45.6978 292.514 45.1378V44.4928ZM298.318 40.3528C298.898 40.3528 299.343 40.5278 299.653 40.8778C299.963 41.2178 300.118 41.7778 300.118 42.5578V47.7778H298.993V42.6328C298.993 42.1628 298.903 41.8378 298.723 41.6578C298.553 41.4678 298.298 41.3728 297.958 41.3728C297.588 41.3728 297.273 41.5528 297.013 41.9128C296.753 42.2628 296.623 42.7428 296.623 43.3528V47.7778H295.483V40.5178H296.338L296.503 41.3728H296.578C296.958 40.6928 297.538 40.3528 298.318 40.3528ZM303.927 40.3528C304.697 40.3528 305.257 40.5928 305.607 41.0728C305.957 41.5528 306.132 42.2628 306.132 43.2028H304.962C304.962 42.5528 304.887 42.0878 304.737 41.8078C304.587 41.5178 304.317 41.3728 303.927 41.3728C303.477 41.3728 303.147 41.5828 302.937 42.0028C302.727 42.4128 302.622 43.0428 302.622 43.8928V44.4028C302.622 45.2528 302.727 45.8878 302.937 46.3078C303.147 46.7278 303.477 46.9378 303.927 46.9378C304.317 46.9378 304.597 46.7878 304.767 46.4878C304.937 46.1778 305.022 45.7128 305.022 45.0928H306.132C306.132 45.9228 305.952 46.6078 305.592 47.1478C305.232 47.6778 304.677 47.9428 303.927 47.9428C303.067 47.9428 302.437 47.6378 302.037 47.0278C301.637 46.4178 301.437 45.4628 301.437 44.1628C301.437 42.8528 301.637 41.8928 302.037 41.2828C302.437 40.6628 303.067 40.3528 303.927 40.3528ZM309.882 40.3528C310.702 40.3528 311.307 40.6228 311.697 41.1628C312.087 41.7028 312.282 42.5728 312.282 43.7728V44.4928H308.352C308.362 45.3328 308.492 45.9528 308.742 46.3528C309.002 46.7428 309.402 46.9378 309.942 46.9378C310.302 46.9378 310.592 46.7928 310.812 46.5028C311.042 46.2028 311.157 45.8078 311.157 45.3178H312.282C312.282 46.1178 312.062 46.7578 311.622 47.2378C311.192 47.7078 310.622 47.9428 309.912 47.9428C308.982 47.9428 308.287 47.6428 307.827 47.0428C307.377 46.4428 307.152 45.4828 307.152 44.1628C307.152 42.8628 307.377 41.9028 307.827 41.2828C308.277 40.6628 308.962 40.3528 309.882 40.3528ZM309.882 41.3728C309.392 41.3728 309.027 41.5478 308.787 41.8978C308.557 42.2378 308.417 42.7628 308.367 43.4728H311.097C311.097 42.0728 310.692 41.3728 309.882 41.3728Z" fill="#E7E7E7"/>
<path d="M319.2 66.16C319.96 66.16 320.587 66.36 321.08 66.76C321.587 67.1467 321.973 67.82 322.24 68.78C322.52 69.7267 322.66 71.0333 322.66 72.7C322.66 74.3533 322.52 75.66 322.24 76.62C321.973 77.58 321.587 78.2533 321.08 78.64C320.587 79.0267 319.96 79.22 319.2 79.22C318.427 79.22 317.787 79.0267 317.28 78.64C316.787 78.2533 316.4 77.58 316.12 76.62C315.853 75.66 315.72 74.3533 315.72 72.7C315.72 71.0333 315.853 69.72 316.12 68.76C316.387 67.8 316.773 67.1267 317.28 66.74C317.787 66.3533 318.427 66.16 319.2 66.16ZM319.2 67.52C318.493 67.52 317.993 67.9133 317.7 68.7C317.42 69.4867 317.28 70.6067 317.28 72.06V73.34C317.28 74.78 317.42 75.9 317.7 76.7C317.993 77.4867 318.493 77.88 319.2 77.88C319.907 77.88 320.4 77.4867 320.68 76.7C320.96 75.9 321.1 74.78 321.1 73.34V72.06C321.1 70.6067 320.96 69.4867 320.68 68.7C320.4 67.9133 319.907 67.52 319.2 67.52ZM327.579 66.16C328.339 66.16 328.966 66.36 329.459 66.76C329.966 67.1467 330.352 67.82 330.619 68.78C330.899 69.7267 331.039 71.0333 331.039 72.7C331.039 74.3533 330.899 75.66 330.619 76.62C330.352 77.58 329.966 78.2533 329.459 78.64C328.966 79.0267 328.339 79.22 327.579 79.22C326.806 79.22 326.166 79.0267 325.659 78.64C325.166 78.2533 324.779 77.58 324.499 76.62C324.232 75.66 324.099 74.3533 324.099 72.7C324.099 71.0333 324.232 69.72 324.499 68.76C324.766 67.8 325.152 67.1267 325.659 66.74C326.166 66.3533 326.806 66.16 327.579 66.16ZM327.579 67.52C326.872 67.52 326.372 67.9133 326.079 68.7C325.799 69.4867 325.659 70.6067 325.659 72.06V73.34C325.659 74.78 325.799 75.9 326.079 76.7C326.372 77.4867 326.872 77.88 327.579 77.88C328.286 77.88 328.779 77.4867 329.059 76.7C329.339 75.9 329.479 74.78 329.479 73.34V72.06C329.479 70.6067 329.339 69.4867 329.059 68.7C328.779 67.9133 328.286 67.52 327.579 67.52Z" fill="white"/>
<path d="M238.93 61.54C237.11 64.2467 235.57 67.14 234.31 70.22C233.05 73.2767 232.42 76.3217 232.42 79.355C232.42 79.9383 232.432 80.4867 232.455 81H228.22C228.22 77.6867 228.838 74.3967 230.075 71.13C231.335 67.8633 232.898 65.005 234.765 62.555H225.735V58.95H238.93V61.54ZM247.013 58.53C248.88 58.53 250.326 59.1133 251.353 60.28C252.403 61.4467 252.928 62.9167 252.928 64.69C252.928 65.74 252.718 66.7083 252.298 67.595C251.901 68.4583 251.306 69.1583 250.513 69.695C252.426 70.6283 253.383 72.3783 253.383 74.945C253.383 76.835 252.846 78.3867 251.773 79.6C250.723 80.79 249.136 81.385 247.013 81.385C244.866 81.385 243.268 80.79 242.218 79.6C241.168 78.3867 240.643 76.835 240.643 74.945C240.643 72.3783 241.576 70.6283 243.443 69.695C242.673 69.1583 242.09 68.4583 241.693 67.595C241.296 66.7317 241.098 65.7633 241.098 64.69C241.098 62.9167 241.611 61.4467 242.638 60.28C243.665 59.1133 245.123 58.53 247.013 58.53ZM247.013 61.75C246.36 61.75 245.858 62.0183 245.508 62.555C245.181 63.0917 245.018 63.885 245.018 64.935C245.018 65.985 245.181 66.7783 245.508 67.315C245.858 67.8517 246.36 68.12 247.013 68.12C247.643 68.12 248.133 67.8517 248.483 67.315C248.833 66.7783 249.008 65.985 249.008 64.935C249.008 63.885 248.833 63.0917 248.483 62.555C248.133 62.0183 247.643 61.75 247.013 61.75ZM247.013 71.305C246.22 71.305 245.613 71.6083 245.193 72.215C244.796 72.7983 244.598 73.65 244.598 74.77C244.598 75.89 244.796 76.7417 245.193 77.325C245.613 77.885 246.22 78.165 247.013 78.165C247.783 78.165 248.366 77.885 248.763 77.325C249.183 76.7417 249.393 75.89 249.393 74.77C249.393 73.6733 249.183 72.8217 248.763 72.215C248.366 71.6083 247.783 71.305 247.013 71.305ZM255.796 86.04L257.546 81H255.796V76.59H260.206V80.615L258.071 86.04H255.796ZM268.92 58.53C270.786 58.53 272.268 59.0667 273.365 60.14C274.461 61.19 275.01 62.6717 275.01 64.585C275.01 65.8217 274.753 66.825 274.24 67.595C273.726 68.365 273.015 69.0067 272.105 69.52V69.695C273.108 70.045 273.901 70.675 274.485 71.585C275.091 72.495 275.395 73.65 275.395 75.05C275.395 76.9867 274.8 78.5267 273.61 79.67C272.443 80.8133 270.915 81.385 269.025 81.385C266.948 81.385 265.338 80.8017 264.195 79.635C263.051 78.445 262.48 76.8233 262.48 74.77V74.21H266.505V74.84C266.505 75.9133 266.715 76.73 267.135 77.29C267.555 77.85 268.161 78.13 268.955 78.13C269.725 78.13 270.32 77.8617 270.74 77.325C271.16 76.7883 271.37 75.9717 271.37 74.875C271.37 72.565 270.495 71.41 268.745 71.41H267.66V68.155H268.78C269.41 68.155 269.923 67.8633 270.32 67.28C270.74 66.6967 270.95 65.8567 270.95 64.76C270.95 63.7567 270.775 63.01 270.425 62.52C270.075 62.03 269.585 61.785 268.955 61.785C268.301 61.785 267.788 62.0533 267.415 62.59C267.065 63.1033 266.89 63.8617 266.89 64.865V65.495H262.865V64.585C262.865 62.765 263.425 61.3067 264.545 60.21C265.688 59.09 267.146 58.53 268.92 58.53ZM286.033 58.53C285.636 60.28 285.053 62.135 284.283 64.095C283.513 66.0317 282.72 67.7933 281.903 69.38C281.086 70.9433 280.433 72.075 279.943 72.775H284.528V67.84C284.925 67.0233 285.333 66.0433 285.753 64.9C286.173 63.7333 286.488 62.7067 286.698 61.82H288.378V72.775H290.653V76.03H288.378V81H284.528V76.03H276.583V72.915C277.703 70.9783 278.741 68.75 279.698 66.23C280.655 63.6867 281.471 61.12 282.148 58.53H286.033ZM296.426 67.735C297.359 67.0117 298.398 66.65 299.541 66.65C301.128 66.65 302.423 67.2683 303.426 68.505C304.429 69.7183 304.931 71.48 304.931 73.79C304.931 76.1933 304.359 78.06 303.216 79.39C302.073 80.72 300.486 81.385 298.456 81.385C296.496 81.385 294.921 80.7433 293.731 79.46C292.564 78.1533 291.981 76.38 291.981 74.14H295.971C295.971 75.3767 296.193 76.3567 296.636 77.08C297.079 77.8033 297.686 78.165 298.456 78.165C299.226 78.165 299.833 77.7917 300.276 77.045C300.719 76.2983 300.941 75.2133 300.941 73.79C300.941 72.53 300.731 71.55 300.311 70.85C299.891 70.15 299.343 69.8 298.666 69.8C297.639 69.8 296.858 70.43 296.321 71.69L292.576 71.13L293.346 58.95H303.986V62.555H296.706L296.426 67.735ZM307.134 76.59H311.544V81H307.134V76.59Z" fill="white"/>
<rect x="312.25" y="225.25" width="120.5" height="24.5" rx="12.25" fill="#323245" stroke="#D2D2D2" stroke-width="0.5"/>
<path d="M350.432 235.032C350.432 235.992 350.117 236.765 349.488 237.352C348.859 237.939 347.915 238.232 346.656 238.232H344.4V243H343.28V231.816H346.656C347.904 231.816 348.843 232.109 349.472 232.696C350.112 233.283 350.432 234.061 350.432 235.032ZM346.656 237.272C348.405 237.272 349.28 236.525 349.28 235.032C349.28 234.285 349.072 233.72 348.656 233.336C348.24 232.952 347.573 232.76 346.656 232.76H344.4V237.272H346.656ZM351.799 238.616C351.799 237.72 351.975 236.936 352.327 236.264C352.69 235.581 353.186 235.059 353.815 234.696C354.455 234.323 355.175 234.136 355.975 234.136C356.807 234.136 357.522 234.328 358.119 234.712C358.727 235.096 359.165 235.587 359.431 236.184V234.264H360.551V243H359.431V241.064C359.154 241.661 358.711 242.157 358.103 242.552C357.506 242.936 356.791 243.128 355.959 243.128C355.17 243.128 354.455 242.941 353.815 242.568C353.186 242.195 352.69 241.667 352.327 240.984C351.975 240.301 351.799 239.512 351.799 238.616ZM359.431 238.632C359.431 237.928 359.287 237.309 358.999 236.776C358.711 236.243 358.317 235.832 357.815 235.544C357.325 235.256 356.781 235.112 356.183 235.112C355.565 235.112 355.01 235.251 354.519 235.528C354.029 235.805 353.639 236.211 353.351 236.744C353.074 237.267 352.935 237.891 352.935 238.616C352.935 239.331 353.074 239.96 353.351 240.504C353.639 241.037 354.029 241.448 354.519 241.736C355.01 242.013 355.565 242.152 356.183 242.152C356.781 242.152 357.325 242.008 357.815 241.72C358.317 241.432 358.711 241.021 358.999 240.488C359.287 239.955 359.431 239.336 359.431 238.632ZM370.308 234.264L365.124 247.112H363.956L365.652 242.952L362.068 234.264H363.3L366.276 241.72L369.156 234.264H370.308ZM384.65 243H383.53L377.338 233.592V243H376.218V231.816H377.338L383.53 241.208V231.816H384.65V243ZM391.01 243.128C390.189 243.128 389.448 242.947 388.786 242.584C388.136 242.211 387.618 241.688 387.234 241.016C386.861 240.333 386.674 239.539 386.674 238.632C386.674 237.725 386.866 236.936 387.25 236.264C387.634 235.581 388.157 235.059 388.818 234.696C389.48 234.323 390.221 234.136 391.042 234.136C391.864 234.136 392.605 234.323 393.266 234.696C393.938 235.059 394.461 235.581 394.834 236.264C395.218 236.936 395.41 237.725 395.41 238.632C395.41 239.528 395.218 240.317 394.834 241C394.45 241.683 393.922 242.211 393.25 242.584C392.578 242.947 391.832 243.128 391.01 243.128ZM391.01 242.152C391.586 242.152 392.12 242.024 392.61 241.768C393.101 241.501 393.496 241.107 393.794 240.584C394.104 240.051 394.258 239.4 394.258 238.632C394.258 237.864 394.109 237.219 393.81 236.696C393.512 236.163 393.117 235.768 392.626 235.512C392.136 235.245 391.602 235.112 391.026 235.112C390.45 235.112 389.917 235.245 389.426 235.512C388.936 235.768 388.541 236.163 388.242 236.696C387.954 237.219 387.81 237.864 387.81 238.632C387.81 239.4 387.954 240.051 388.242 240.584C388.541 241.107 388.93 241.501 389.41 241.768C389.901 242.024 390.434 242.152 391.01 242.152ZM408.972 234.264L406.236 243H405.116L402.7 235.672L400.284 243H399.148L396.412 234.264H397.548L399.724 241.864L402.172 234.264H403.292L405.708 241.88L407.868 234.264H408.972Z" fill="white"/>
<defs>
<linearGradient id="paint0_linear_120_24" x1="33.1821" y1="69.5294" x2="541.526" y2="190.995" gradientUnits="userSpaceOnUse">
<stop stop-color="#13A891"/>
<stop offset="1" stop-color="#1BAD97"/>
</linearGradient>
</defs>
</svg>
