<svg width="571" height="138" viewBox="0 0 571 138" fill="none" xmlns="http://www.w3.org/2000/svg">
<path d="M-3 138H570.789V20C570.789 8.95432 561.835 0 550.789 0H17C5.95432 0 -3 8.9543 -3 20V138Z" fill="#DAB98F"/>
<rect x="140.811" y="85.7051" width="287.621" height="36.3158" rx="18.1579" fill="#262634"/>
<path d="M246.3 98.575C247.12 98.575 247.725 98.845 248.115 99.385C248.505 99.925 248.7 100.795 248.7 101.995V102.715H244.77C244.78 103.555 244.91 104.175 245.16 104.575C245.42 104.965 245.82 105.16 246.36 105.16C246.72 105.16 247.01 105.015 247.23 104.725C247.46 104.425 247.575 104.03 247.575 103.54H248.7C248.7 104.34 248.48 104.98 248.04 105.46C247.61 105.93 247.04 106.165 246.33 106.165C245.4 106.165 244.705 105.865 244.245 105.265C243.795 104.665 243.57 103.705 243.57 102.385C243.57 101.085 243.795 100.125 244.245 99.505C244.695 98.885 245.38 98.575 246.3 98.575ZM246.3 99.595C245.81 99.595 245.445 99.77 245.205 100.12C244.975 100.46 244.835 100.985 244.785 101.695H247.515C247.515 100.295 247.11 99.595 246.3 99.595ZM252.359 98.575C253.089 98.575 253.639 98.75 254.009 99.1C254.379 99.45 254.564 99.95 254.564 100.6V104.68C254.564 104.83 254.599 104.95 254.669 105.04C254.739 105.12 254.824 105.16 254.924 105.16H255.389V105.94C255.189 106.05 254.939 106.105 254.639 106.105C254.349 106.105 254.099 106.025 253.889 105.865C253.689 105.705 253.559 105.49 253.499 105.22H253.424C253.234 105.52 252.984 105.755 252.674 105.925C252.374 106.085 252.034 106.165 251.654 106.165C251.164 106.165 250.724 106.02 250.334 105.73C249.944 105.44 249.749 104.905 249.749 104.125C249.749 103.195 250.064 102.56 250.694 102.22C251.324 101.87 252.234 101.695 253.424 101.695V100.765C253.424 100.385 253.339 100.095 253.169 99.895C253.009 99.695 252.714 99.595 252.284 99.595C251.884 99.595 251.594 99.705 251.414 99.925C251.244 100.145 251.159 100.41 251.159 100.72V100.9H250.049C250.039 100.85 250.034 100.745 250.034 100.585C250.034 99.945 250.244 99.45 250.664 99.1C251.094 98.75 251.659 98.575 252.359 98.575ZM253.424 102.715C252.594 102.715 251.969 102.81 251.549 103C251.139 103.18 250.934 103.53 250.934 104.05C250.934 104.45 251.014 104.735 251.174 104.905C251.344 105.075 251.594 105.16 251.924 105.16C252.314 105.16 252.659 105 252.959 104.68C253.269 104.36 253.424 103.92 253.424 103.36V102.715ZM258.448 98.575C259.098 98.575 259.608 98.765 259.978 99.145C260.348 99.525 260.533 100 260.533 100.57L260.518 100.84H259.348V100.705C259.348 100.385 259.268 100.12 259.108 99.91C258.948 99.69 258.693 99.58 258.343 99.58C257.983 99.58 257.728 99.68 257.578 99.88C257.438 100.08 257.368 100.31 257.368 100.57C257.368 100.87 257.473 101.1 257.683 101.26C257.903 101.41 258.238 101.56 258.688 101.71C259.098 101.85 259.433 101.995 259.693 102.145C259.963 102.285 260.193 102.5 260.383 102.79C260.573 103.08 260.668 103.46 260.668 103.93C260.668 104.68 260.458 105.24 260.038 105.61C259.618 105.98 259.058 106.165 258.358 106.165C257.578 106.165 256.993 105.96 256.603 105.55C256.213 105.14 256.018 104.635 256.018 104.035C256.018 103.925 256.018 103.85 256.018 103.81C256.028 103.77 256.033 103.745 256.033 103.735H257.218V103.885C257.218 104.315 257.328 104.64 257.548 104.86C257.768 105.07 258.053 105.175 258.403 105.175C258.713 105.175 258.973 105.08 259.183 104.89C259.393 104.7 259.498 104.435 259.498 104.095C259.498 103.835 259.433 103.625 259.303 103.465C259.183 103.295 259.028 103.165 258.838 103.075C258.658 102.975 258.403 102.865 258.073 102.745C257.663 102.595 257.333 102.455 257.083 102.325C256.843 102.185 256.633 101.98 256.453 101.71C256.283 101.44 256.198 101.085 256.198 100.645C256.198 100.005 256.398 99.5 256.798 99.13C257.208 98.76 257.758 98.575 258.448 98.575ZM264.883 105.625C264.643 106.525 264.338 107.23 263.968 107.74C263.608 108.25 263.133 108.505 262.543 108.505C262.223 108.505 261.953 108.47 261.733 108.4V107.605H262.123C262.853 107.605 263.333 107.07 263.563 106L261.343 98.74H262.588L263.638 102.475L263.938 103.495L264.193 104.38H264.238C264.288 104.15 264.373 103.805 264.493 103.345L264.703 102.49L265.588 98.74H266.728L264.883 105.625ZM273.072 98.575C273.802 98.575 274.352 98.75 274.722 99.1C275.092 99.45 275.277 99.95 275.277 100.6V104.68C275.277 104.83 275.312 104.95 275.382 105.04C275.452 105.12 275.537 105.16 275.637 105.16H276.102V105.94C275.902 106.05 275.652 106.105 275.352 106.105C275.062 106.105 274.812 106.025 274.602 105.865C274.402 105.705 274.272 105.49 274.212 105.22H274.137C273.947 105.52 273.697 105.755 273.387 105.925C273.087 106.085 272.747 106.165 272.367 106.165C271.877 106.165 271.437 106.02 271.047 105.73C270.657 105.44 270.462 104.905 270.462 104.125C270.462 103.195 270.777 102.56 271.407 102.22C272.037 101.87 272.947 101.695 274.137 101.695V100.765C274.137 100.385 274.052 100.095 273.882 99.895C273.722 99.695 273.427 99.595 272.997 99.595C272.597 99.595 272.307 99.705 272.127 99.925C271.957 100.145 271.872 100.41 271.872 100.72V100.9H270.762C270.752 100.85 270.747 100.745 270.747 100.585C270.747 99.945 270.957 99.45 271.377 99.1C271.807 98.75 272.372 98.575 273.072 98.575ZM274.137 102.715C273.307 102.715 272.682 102.81 272.262 103C271.852 103.18 271.647 103.53 271.647 104.05C271.647 104.45 271.727 104.735 271.887 104.905C272.057 105.075 272.307 105.16 272.637 105.16C273.027 105.16 273.372 105 273.672 104.68C273.982 104.36 274.137 103.92 274.137 103.36V102.715ZM279.941 98.575C280.521 98.575 280.966 98.75 281.276 99.1C281.586 99.44 281.741 100 281.741 100.78V106H280.616V100.855C280.616 100.385 280.526 100.06 280.346 99.88C280.176 99.69 279.921 99.595 279.581 99.595C279.211 99.595 278.896 99.775 278.636 100.135C278.376 100.485 278.246 100.965 278.246 101.575V106H277.106V98.74H277.961L278.126 99.595H278.201C278.581 98.915 279.161 98.575 279.941 98.575ZM287.02 105.16H286.945C286.775 105.49 286.55 105.74 286.27 105.91C286 106.08 285.695 106.165 285.355 106.165C284.645 106.165 284.09 105.855 283.69 105.235C283.3 104.605 283.105 103.65 283.105 102.37C283.105 101.11 283.305 100.165 283.705 99.535C284.115 98.895 284.64 98.575 285.28 98.575C285.63 98.575 285.94 98.655 286.21 98.815C286.49 98.965 286.695 99.17 286.825 99.43H286.9V96.025H288.025V106H287.17L287.02 105.16ZM285.595 99.595C285.155 99.595 284.825 99.795 284.605 100.195C284.395 100.585 284.29 101.225 284.29 102.115V102.625C284.29 103.515 284.395 104.16 284.605 104.56C284.825 104.96 285.155 105.16 285.595 105.16C286.465 105.16 286.9 104.315 286.9 102.625V102.16C286.9 100.45 286.465 99.595 285.595 99.595ZM294.879 98.575C295.529 98.575 296.039 98.765 296.409 99.145C296.779 99.525 296.964 100 296.964 100.57L296.949 100.84H295.779V100.705C295.779 100.385 295.699 100.12 295.539 99.91C295.379 99.69 295.124 99.58 294.774 99.58C294.414 99.58 294.159 99.68 294.009 99.88C293.869 100.08 293.799 100.31 293.799 100.57C293.799 100.87 293.904 101.1 294.114 101.26C294.334 101.41 294.669 101.56 295.119 101.71C295.529 101.85 295.864 101.995 296.124 102.145C296.394 102.285 296.624 102.5 296.814 102.79C297.004 103.08 297.099 103.46 297.099 103.93C297.099 104.68 296.889 105.24 296.469 105.61C296.049 105.98 295.489 106.165 294.789 106.165C294.009 106.165 293.424 105.96 293.034 105.55C292.644 105.14 292.449 104.635 292.449 104.035C292.449 103.925 292.449 103.85 292.449 103.81C292.459 103.77 292.464 103.745 292.464 103.735H293.649V103.885C293.649 104.315 293.759 104.64 293.979 104.86C294.199 105.07 294.484 105.175 294.834 105.175C295.144 105.175 295.404 105.08 295.614 104.89C295.824 104.7 295.929 104.435 295.929 104.095C295.929 103.835 295.864 103.625 295.734 103.465C295.614 103.295 295.459 103.165 295.269 103.075C295.089 102.975 294.834 102.865 294.504 102.745C294.094 102.595 293.764 102.455 293.514 102.325C293.274 102.185 293.064 101.98 292.884 101.71C292.714 101.44 292.629 101.085 292.629 100.645C292.629 100.005 292.829 99.5 293.229 99.13C293.639 98.76 294.189 98.575 294.879 98.575ZM300.939 98.575C301.759 98.575 302.364 98.845 302.754 99.385C303.144 99.925 303.339 100.795 303.339 101.995V102.715H299.409C299.419 103.555 299.549 104.175 299.799 104.575C300.059 104.965 300.459 105.16 300.999 105.16C301.359 105.16 301.649 105.015 301.869 104.725C302.099 104.425 302.214 104.03 302.214 103.54H303.339C303.339 104.34 303.119 104.98 302.679 105.46C302.249 105.93 301.679 106.165 300.969 106.165C300.039 106.165 299.344 105.865 298.884 105.265C298.434 104.665 298.209 103.705 298.209 102.385C298.209 101.085 298.434 100.125 298.884 99.505C299.334 98.885 300.019 98.575 300.939 98.575ZM300.939 99.595C300.449 99.595 300.084 99.77 299.844 100.12C299.614 100.46 299.474 100.985 299.424 101.695H302.154C302.154 100.295 301.749 99.595 300.939 99.595ZM306.908 98.575C307.678 98.575 308.238 98.815 308.588 99.295C308.938 99.775 309.113 100.485 309.113 101.425H307.943C307.943 100.775 307.868 100.31 307.718 100.03C307.568 99.74 307.298 99.595 306.908 99.595C306.458 99.595 306.128 99.805 305.918 100.225C305.708 100.635 305.603 101.265 305.603 102.115V102.625C305.603 103.475 305.708 104.11 305.918 104.53C306.128 104.95 306.458 105.16 306.908 105.16C307.298 105.16 307.578 105.01 307.748 104.71C307.918 104.4 308.003 103.935 308.003 103.315H309.113C309.113 104.145 308.933 104.83 308.573 105.37C308.213 105.9 307.658 106.165 306.908 106.165C306.048 106.165 305.418 105.86 305.018 105.25C304.618 104.64 304.418 103.685 304.418 102.385C304.418 101.075 304.618 100.115 305.018 99.505C305.418 98.885 306.048 98.575 306.908 98.575ZM314.018 105.16H313.928C313.568 105.83 312.988 106.165 312.188 106.165C310.988 106.165 310.388 105.435 310.388 103.975V98.74H311.528V103.9C311.528 104.37 311.613 104.7 311.783 104.89C311.963 105.07 312.218 105.16 312.548 105.16C312.918 105.16 313.233 104.98 313.493 104.62C313.763 104.26 313.898 103.78 313.898 103.18V98.74H315.023V106H314.168L314.018 105.16ZM318.997 98.575C319.117 98.575 319.227 98.59 319.327 98.62C319.427 98.65 319.492 98.67 319.522 98.68V99.865H319.147C318.757 99.865 318.437 100 318.187 100.27C317.937 100.54 317.812 100.975 317.812 101.575V106H316.672V98.74H317.527L317.692 99.7H317.767C317.867 99.38 318.017 99.115 318.217 98.905C318.417 98.685 318.677 98.575 318.997 98.575ZM322.911 98.575C323.731 98.575 324.336 98.845 324.726 99.385C325.116 99.925 325.311 100.795 325.311 101.995V102.715H321.381C321.391 103.555 321.521 104.175 321.771 104.575C322.031 104.965 322.431 105.16 322.971 105.16C323.331 105.16 323.621 105.015 323.841 104.725C324.071 104.425 324.186 104.03 324.186 103.54H325.311C325.311 104.34 325.091 104.98 324.651 105.46C324.221 105.93 323.651 106.165 322.941 106.165C322.011 106.165 321.316 105.865 320.856 105.265C320.406 104.665 320.181 103.705 320.181 102.385C320.181 101.085 320.406 100.125 320.856 99.505C321.306 98.885 321.991 98.575 322.911 98.575ZM322.911 99.595C322.421 99.595 322.056 99.77 321.816 100.12C321.586 100.46 321.446 100.985 321.396 101.695H324.126C324.126 100.295 323.721 99.595 322.911 99.595Z" fill="white"/>
<path d="M260.88 27.575C261.53 27.575 262.04 27.765 262.41 28.145C262.78 28.525 262.965 29 262.965 29.57L262.95 29.84H261.78V29.705C261.78 29.385 261.7 29.12 261.54 28.91C261.38 28.69 261.125 28.58 260.775 28.58C260.415 28.58 260.16 28.68 260.01 28.88C259.87 29.08 259.8 29.31 259.8 29.57C259.8 29.87 259.905 30.1 260.115 30.26C260.335 30.41 260.67 30.56 261.12 30.71C261.53 30.85 261.865 30.995 262.125 31.145C262.395 31.285 262.625 31.5 262.815 31.79C263.005 32.08 263.1 32.46 263.1 32.93C263.1 33.68 262.89 34.24 262.47 34.61C262.05 34.98 261.49 35.165 260.79 35.165C260.01 35.165 259.425 34.96 259.035 34.55C258.645 34.14 258.45 33.635 258.45 33.035C258.45 32.925 258.45 32.85 258.45 32.81C258.46 32.77 258.465 32.745 258.465 32.735H259.65V32.885C259.65 33.315 259.76 33.64 259.98 33.86C260.2 34.07 260.485 34.175 260.835 34.175C261.145 34.175 261.405 34.08 261.615 33.89C261.825 33.7 261.93 33.435 261.93 33.095C261.93 32.835 261.865 32.625 261.735 32.465C261.615 32.295 261.46 32.165 261.27 32.075C261.09 31.975 260.835 31.865 260.505 31.745C260.095 31.595 259.765 31.455 259.515 31.325C259.275 31.185 259.065 30.98 258.885 30.71C258.715 30.44 258.63 30.085 258.63 29.645C258.63 29.005 258.83 28.5 259.23 28.13C259.64 27.76 260.19 27.575 260.88 27.575ZM266.715 27.575C267.445 27.575 267.995 27.75 268.365 28.1C268.735 28.45 268.92 28.95 268.92 29.6V33.68C268.92 33.83 268.955 33.95 269.025 34.04C269.095 34.12 269.18 34.16 269.28 34.16H269.745V34.94C269.545 35.05 269.295 35.105 268.995 35.105C268.705 35.105 268.455 35.025 268.245 34.865C268.045 34.705 267.915 34.49 267.855 34.22H267.78C267.59 34.52 267.34 34.755 267.03 34.925C266.73 35.085 266.39 35.165 266.01 35.165C265.52 35.165 265.08 35.02 264.69 34.73C264.3 34.44 264.105 33.905 264.105 33.125C264.105 32.195 264.42 31.56 265.05 31.22C265.68 30.87 266.59 30.695 267.78 30.695V29.765C267.78 29.385 267.695 29.095 267.525 28.895C267.365 28.695 267.07 28.595 266.64 28.595C266.24 28.595 265.95 28.705 265.77 28.925C265.6 29.145 265.515 29.41 265.515 29.72V29.9H264.405C264.395 29.85 264.39 29.745 264.39 29.585C264.39 28.945 264.6 28.45 265.02 28.1C265.45 27.75 266.015 27.575 266.715 27.575ZM267.78 31.715C266.95 31.715 266.325 31.81 265.905 32C265.495 32.18 265.29 32.53 265.29 33.05C265.29 33.45 265.37 33.735 265.53 33.905C265.7 34.075 265.95 34.16 266.28 34.16C266.67 34.16 267.015 34 267.315 33.68C267.625 33.36 267.78 32.92 267.78 32.36V31.715ZM272.144 35L270.059 27.74H271.304L272.294 31.46C272.364 31.68 272.464 32.06 272.594 32.6L272.774 33.275H272.834C272.894 33.035 273.024 32.545 273.224 31.805L273.314 31.49L274.304 27.74H275.444L273.374 35H272.144ZM278.863 27.575C279.683 27.575 280.288 27.845 280.678 28.385C281.068 28.925 281.263 29.795 281.263 30.995V31.715H277.333C277.343 32.555 277.473 33.175 277.723 33.575C277.983 33.965 278.383 34.16 278.923 34.16C279.283 34.16 279.573 34.015 279.793 33.725C280.023 33.425 280.138 33.03 280.138 32.54H281.263C281.263 33.34 281.043 33.98 280.603 34.46C280.173 34.93 279.603 35.165 278.893 35.165C277.963 35.165 277.268 34.865 276.808 34.265C276.358 33.665 276.133 32.705 276.133 31.385C276.133 30.085 276.358 29.125 276.808 28.505C277.258 27.885 277.943 27.575 278.863 27.575ZM278.863 28.595C278.373 28.595 278.008 28.77 277.768 29.12C277.538 29.46 277.398 29.985 277.348 30.695H280.078C280.078 29.295 279.673 28.595 278.863 28.595ZM286.303 34.16H286.228C286.058 34.49 285.833 34.74 285.553 34.91C285.283 35.08 284.978 35.165 284.638 35.165C283.928 35.165 283.373 34.855 282.973 34.235C282.583 33.605 282.388 32.65 282.388 31.37C282.388 30.11 282.588 29.165 282.988 28.535C283.398 27.895 283.923 27.575 284.563 27.575C284.913 27.575 285.223 27.655 285.493 27.815C285.773 27.965 285.978 28.17 286.108 28.43H286.183V25.025H287.308V35H286.453L286.303 34.16ZM284.878 28.595C284.438 28.595 284.108 28.795 283.888 29.195C283.678 29.585 283.573 30.225 283.573 31.115V31.625C283.573 32.515 283.678 33.16 283.888 33.56C284.108 33.96 284.438 34.16 284.878 34.16C285.748 34.16 286.183 33.315 286.183 31.625V31.16C286.183 29.45 285.748 28.595 284.878 28.595ZM294.191 28.76H293.231V33.5C293.231 33.71 293.286 33.875 293.396 33.995C293.506 34.105 293.666 34.16 293.876 34.16H294.191V34.94C294.101 35 293.981 35.045 293.831 35.075C293.681 35.115 293.531 35.135 293.381 35.135C292.931 35.135 292.601 34.975 292.391 34.655C292.191 34.335 292.091 33.94 292.091 33.47V28.76H291.461V27.74H292.091L292.346 25.73H293.231V27.74H294.191V28.76ZM296.471 28.505C296.831 27.885 297.371 27.575 298.091 27.575C298.671 27.575 299.116 27.75 299.426 28.1C299.736 28.44 299.891 29 299.891 29.78V35H298.766V29.855C298.766 29.385 298.676 29.06 298.496 28.88C298.326 28.69 298.071 28.595 297.731 28.595C297.361 28.595 297.046 28.775 296.786 29.135C296.526 29.485 296.396 29.965 296.396 30.575V35H295.256V25.025H296.396V28.505H296.471ZM301.405 25.025H302.545V26.39H301.405V25.025ZM301.405 27.74H302.545V35H301.405V27.74ZM306.1 27.575C306.75 27.575 307.26 27.765 307.63 28.145C308 28.525 308.185 29 308.185 29.57L308.17 29.84H307V29.705C307 29.385 306.92 29.12 306.76 28.91C306.6 28.69 306.345 28.58 305.995 28.58C305.635 28.58 305.38 28.68 305.23 28.88C305.09 29.08 305.02 29.31 305.02 29.57C305.02 29.87 305.125 30.1 305.335 30.26C305.555 30.41 305.89 30.56 306.34 30.71C306.75 30.85 307.085 30.995 307.345 31.145C307.615 31.285 307.845 31.5 308.035 31.79C308.225 32.08 308.32 32.46 308.32 32.93C308.32 33.68 308.11 34.24 307.69 34.61C307.27 34.98 306.71 35.165 306.01 35.165C305.23 35.165 304.645 34.96 304.255 34.55C303.865 34.14 303.67 33.635 303.67 33.035C303.67 32.925 303.67 32.85 303.67 32.81C303.68 32.77 303.685 32.745 303.685 32.735H304.87V32.885C304.87 33.315 304.98 33.64 305.2 33.86C305.42 34.07 305.705 34.175 306.055 34.175C306.365 34.175 306.625 34.08 306.835 33.89C307.045 33.7 307.15 33.435 307.15 33.095C307.15 32.835 307.085 32.625 306.955 32.465C306.835 32.295 306.68 32.165 306.49 32.075C306.31 31.975 306.055 31.865 305.725 31.745C305.315 31.595 304.985 31.455 304.735 31.325C304.495 31.185 304.285 30.98 304.105 30.71C303.935 30.44 303.85 30.085 303.85 29.645C303.85 29.005 304.05 28.5 304.45 28.13C304.86 27.76 305.41 27.575 306.1 27.575ZM316.329 30.86C316.269 30.55 316.219 30.22 316.179 29.87C316.149 29.52 316.129 29.295 316.119 29.195H316.044C316.034 29.295 316.009 29.52 315.969 29.87C315.939 30.21 315.894 30.54 315.834 30.86L315.084 35H313.839L312.024 27.74H313.254L314.184 31.835C314.244 32.075 314.299 32.39 314.349 32.78C314.409 33.17 314.444 33.425 314.454 33.545H314.514C314.524 33.435 314.549 33.22 314.589 32.9C314.629 32.57 314.679 32.215 314.739 31.835L315.474 27.74H316.779L317.529 31.835C317.589 32.215 317.639 32.57 317.679 32.9C317.719 33.22 317.744 33.435 317.754 33.545H317.799C317.809 33.445 317.839 33.22 317.889 32.87C317.949 32.52 318.019 32.175 318.099 31.835L318.999 27.74H320.154L318.339 35H317.079L316.329 30.86ZM323.468 27.575C324.288 27.575 324.893 27.845 325.283 28.385C325.673 28.925 325.868 29.795 325.868 30.995V31.715H321.938C321.948 32.555 322.078 33.175 322.328 33.575C322.588 33.965 322.988 34.16 323.528 34.16C323.888 34.16 324.178 34.015 324.398 33.725C324.628 33.425 324.743 33.03 324.743 32.54H325.868C325.868 33.34 325.648 33.98 325.208 34.46C324.778 34.93 324.208 35.165 323.498 35.165C322.568 35.165 321.873 34.865 321.413 34.265C320.963 33.665 320.738 32.705 320.738 31.385C320.738 30.085 320.963 29.125 321.413 28.505C321.863 27.885 322.548 27.575 323.468 27.575ZM323.468 28.595C322.978 28.595 322.613 28.77 322.373 29.12C322.143 29.46 322.003 29.985 321.953 30.695H324.683C324.683 29.295 324.278 28.595 323.468 28.595ZM329.752 27.575C330.572 27.575 331.177 27.845 331.567 28.385C331.957 28.925 332.152 29.795 332.152 30.995V31.715H328.222C328.232 32.555 328.362 33.175 328.612 33.575C328.872 33.965 329.272 34.16 329.812 34.16C330.172 34.16 330.462 34.015 330.682 33.725C330.912 33.425 331.027 33.03 331.027 32.54H332.152C332.152 33.34 331.932 33.98 331.492 34.46C331.062 34.93 330.492 35.165 329.782 35.165C328.852 35.165 328.157 34.865 327.697 34.265C327.247 33.665 327.022 32.705 327.022 31.385C327.022 30.085 327.247 29.125 327.697 28.505C328.147 27.885 328.832 27.575 329.752 27.575ZM329.752 28.595C329.262 28.595 328.897 28.77 328.657 29.12C328.427 29.46 328.287 29.985 328.237 30.695H330.967C330.967 29.295 330.562 28.595 329.752 28.595ZM338.286 27.74L336.156 30.725L338.406 35H337.116L335.466 31.7L334.701 32.54V35H333.561V25.025H334.701V31.115L337.041 27.74H338.286Z" fill="#E8E8E8"/>
<path d="M328.042 49.3812C328.802 49.3812 329.429 49.5812 329.922 49.9812C330.429 50.3679 330.815 51.0412 331.082 52.0012C331.362 52.9479 331.502 54.2545 331.502 55.9212C331.502 57.5745 331.362 58.8812 331.082 59.8412C330.815 60.8012 330.429 61.4745 329.922 61.8612C329.429 62.2479 328.802 62.4412 328.042 62.4412C327.269 62.4412 326.629 62.2479 326.122 61.8612C325.629 61.4745 325.242 60.8012 324.962 59.8412C324.695 58.8812 324.562 57.5745 324.562 55.9212C324.562 54.2545 324.695 52.9412 324.962 51.9812C325.229 51.0212 325.615 50.3479 326.122 49.9612C326.629 49.5745 327.269 49.3812 328.042 49.3812ZM328.042 50.7412C327.335 50.7412 326.835 51.1345 326.542 51.9212C326.262 52.7079 326.122 53.8279 326.122 55.2812V56.5612C326.122 58.0012 326.262 59.1212 326.542 59.9212C326.835 60.7079 327.335 61.1012 328.042 61.1012C328.749 61.1012 329.242 60.7079 329.522 59.9212C329.802 59.1212 329.942 58.0012 329.942 56.5612V55.2812C329.942 53.8279 329.802 52.7079 329.522 51.9212C329.242 51.1345 328.749 50.7412 328.042 50.7412ZM336.421 49.3812C337.181 49.3812 337.808 49.5812 338.301 49.9812C338.808 50.3679 339.194 51.0412 339.461 52.0012C339.741 52.9479 339.881 54.2545 339.881 55.9212C339.881 57.5745 339.741 58.8812 339.461 59.8412C339.194 60.8012 338.808 61.4745 338.301 61.8612C337.808 62.2479 337.181 62.4412 336.421 62.4412C335.648 62.4412 335.008 62.2479 334.501 61.8612C334.008 61.4745 333.621 60.8012 333.341 59.8412C333.074 58.8812 332.941 57.5745 332.941 55.9212C332.941 54.2545 333.074 52.9412 333.341 51.9812C333.608 51.0212 333.994 50.3479 334.501 49.9612C335.008 49.5745 335.648 49.3812 336.421 49.3812ZM336.421 50.7412C335.714 50.7412 335.214 51.1345 334.921 51.9212C334.641 52.7079 334.501 53.8279 334.501 55.2812V56.5612C334.501 58.0012 334.641 59.1212 334.921 59.9212C335.214 60.7079 335.714 61.1012 336.421 61.1012C337.128 61.1012 337.621 60.7079 337.901 59.9212C338.181 59.1212 338.321 58.0012 338.321 56.5612V55.2812C338.321 53.8279 338.181 52.7079 337.901 51.9212C337.621 51.1345 337.128 50.7412 336.421 50.7412Z" fill="white"/>
</svg>
