<svg width="230" height="226" viewBox="0 0 230 226" fill="none" xmlns="http://www.w3.org/2000/svg">
<path d="M149.627 359.47C146.96 284.637 199.532 126.871 315.127 168.471M135.127 347.971C132.46 273.138 185.032 115.372 300.627 156.972M120.628 334.972C117.961 260.139 170.533 102.373 286.128 143.972M106.628 322.972C103.961 248.14 156.533 90.3732 272.128 131.973M94.6275 308.973C91.961 234.14 144.533 76.3738 260.128 117.973M208.127 322.972C205.461 248.14 172.127 172.472 288.627 191.474M74.6276 297.973C71.961 223.141 129.033 58.374 244.628 99.9735M64.6271 282.974C61.9606 208.141 123.032 40.3742 238.627 81.9737M46.5433 272.441C43.8767 197.608 119.948 23.841 235.543 65.4406M30.0415 252.442C27.375 177.609 119.949 4.84243 235.543 46.442M15.0403 236.942C12.3737 162.109 117.45 -16.1566 233.045 25.4429M1.04397 228.944C-1.62258 154.112 117.45 -33.6556 233.044 7.94395" stroke="white" stroke-opacity="0.6" stroke-width="2"/>
</svg>
