<svg width="1728" height="488" viewBox="0 0 1728 488" fill="none" xmlns="http://www.w3.org/2000/svg">
<g clip-path="url(#clip0_9_2)">
<rect width="1728" height="488" fill="url(#paint0_linear_9_2)"/>
<g filter="url(#filter0_f_9_2)">
<ellipse cx="-14" cy="-27.5" rx="218" ry="206.5" fill="#D9D9D9" fill-opacity="0.4"/>
</g>
<g filter="url(#filter1_bf_9_2)">
<path d="M835.641 239.371C849.069 79.6691 674.467 333.78 580 480.798L610.341 568L760.756 379.903C794.971 348.914 860.172 316.484 856.299 351.797C841.322 454.421 941.728 418.82 957.652 402.965L1314 -20.7932L1161 -28L934.412 239.371C897.744 283.765 834.135 288.858 835.641 239.371Z" fill="#66666A" fill-opacity="0.67"/>
<path d="M835.641 239.371C849.069 79.6691 674.467 333.78 580 480.798L610.341 568L760.756 379.903C794.971 348.914 860.172 316.484 856.299 351.797C841.322 454.421 941.728 418.82 957.652 402.965L1314 -20.7932L1161 -28L934.412 239.371C897.744 283.765 834.135 288.858 835.641 239.371Z" stroke="#FEECF4" stroke-width="0.5"/>
</g>
<g filter="url(#filter2_bf_9_2)">
<path d="M835.641 239.371C849.069 79.6691 674.467 333.78 580 480.798L610.341 568L760.756 379.903C794.971 348.914 860.172 316.484 856.299 351.797C841.322 454.421 941.728 418.82 957.652 402.965L1314 -20.7932L1161 -28L934.412 239.371C897.744 283.765 834.135 288.858 835.641 239.371Z" fill="#FEECF4"/>
<path d="M835.641 239.371C849.069 79.6691 674.467 333.78 580 480.798L610.341 568L760.756 379.903C794.971 348.914 860.172 316.484 856.299 351.797C841.322 454.421 941.728 418.82 957.652 402.965L1314 -20.7932L1161 -28L934.412 239.371C897.744 283.765 834.135 288.858 835.641 239.371Z" stroke="#FEECF4" stroke-width="0.5"/>
</g>
<g clip-path="url(#clip1_9_2)">
<path d="M939.424 232.199C939.474 230.451 938.711 228.75 937.279 227.418C935.847 226.085 933.846 225.214 931.655 224.969C931.472 224.947 931.286 224.954 931.106 224.989C930.927 225.024 930.758 225.086 930.61 225.173C930.461 225.26 930.336 225.37 930.242 225.495C930.147 225.621 930.085 225.76 930.06 225.904C930.034 226.049 930.045 226.196 930.091 226.337C930.138 226.478 930.22 226.611 930.332 226.727C930.444 226.843 930.585 226.94 930.745 227.013C930.905 227.086 931.082 227.133 931.265 227.151C932.779 227.32 934.163 227.923 935.152 228.843C936.142 229.764 936.669 230.94 936.634 232.147C936.626 232.44 936.765 232.723 937.02 232.934C937.276 233.145 937.627 233.268 937.997 233.275C938.367 233.281 938.726 233.172 938.993 232.97C939.261 232.768 939.416 232.49 939.425 232.198L939.424 232.199Z" fill="#04101B"/>
<path d="M941.648 224.489C939.228 222.231 935.808 220.787 932.087 220.451C931.903 220.431 931.715 220.44 931.536 220.478C931.357 220.516 931.189 220.582 931.042 220.671C930.895 220.761 930.772 220.873 930.681 221.001C930.59 221.129 930.532 221.27 930.511 221.416C930.489 221.561 930.505 221.709 930.557 221.85C930.609 221.991 930.696 222.122 930.813 222.236C930.929 222.35 931.074 222.444 931.238 222.513C931.401 222.583 931.581 222.625 931.766 222.639C934.783 222.915 937.555 224.086 939.52 225.915C941.486 227.744 942.498 230.094 942.352 232.49C942.339 232.636 942.363 232.783 942.423 232.922C942.483 233.061 942.577 233.189 942.701 233.298C942.824 233.408 942.974 233.497 943.142 233.561C943.309 233.624 943.491 233.66 943.676 233.667C943.862 233.674 944.047 233.652 944.222 233.602C944.396 233.551 944.556 233.474 944.693 233.374C944.829 233.275 944.938 233.154 945.015 233.021C945.091 232.887 945.133 232.743 945.138 232.596C945.324 229.641 944.076 226.742 941.648 224.489Z" fill="#04101B"/>
<path d="M950.847 232.917C950.972 228.937 949.238 225.06 945.976 222.025C942.714 218.989 938.152 217.008 933.159 216.458C932.975 216.434 932.788 216.44 932.607 216.475C932.426 216.51 932.256 216.572 932.107 216.66C931.957 216.747 931.831 216.857 931.737 216.983C931.642 217.11 931.58 217.25 931.554 217.395C931.529 217.54 931.541 217.688 931.589 217.83C931.637 217.972 931.72 218.105 931.834 218.221C931.948 218.337 932.09 218.434 932.252 218.506C932.414 218.578 932.593 218.624 932.778 218.64C937.09 219.116 941.031 220.828 943.849 223.45C946.666 226.072 948.164 229.421 948.057 232.859C948.048 233.151 948.186 233.434 948.44 233.646C948.695 233.858 949.046 233.982 949.416 233.989C949.786 233.997 950.145 233.888 950.413 233.687C950.681 233.486 950.838 233.208 950.847 232.916L950.847 232.917Z" fill="#04101B"/>
</g>
<path d="M825.296 250.448V254H809.072V223.76H813.008V250.448H825.296ZM828.317 222.08H831.965V226.448H828.317V222.08ZM828.317 230.768H831.965V254H828.317V230.768ZM845.837 230.24C847.693 230.24 849.117 230.8 850.109 231.92C851.101 233.008 851.597 234.8 851.597 237.296V254H847.997V237.536C847.997 236.032 847.709 234.992 847.133 234.416C846.589 233.808 845.773 233.504 844.685 233.504C843.501 233.504 842.493 234.08 841.661 235.232C840.829 236.352 840.413 237.888 840.413 239.84V254H836.765V230.768H839.501L840.029 233.504H840.269C841.485 231.328 843.341 230.24 845.837 230.24ZM871.994 230.768L865.178 240.32L872.378 254H868.25L862.97 243.44L860.522 246.128V254H856.874V222.08H860.522V241.568L868.01 230.768H871.994ZM875.353 254V223.76H886.153C889.097 223.76 891.337 224.56 892.873 226.16C894.441 227.728 895.225 229.856 895.225 232.544C895.225 235.232 894.409 237.408 892.777 239.072C891.145 240.704 888.937 241.52 886.153 241.52H879.289V254H875.353ZM886.057 237.968C887.625 237.968 888.857 237.472 889.753 236.48C890.681 235.488 891.145 234.176 891.145 232.544C891.145 230.88 890.697 229.584 889.801 228.656C888.937 227.728 887.689 227.264 886.057 227.264H879.289V237.968H886.057ZM906.262 230.24C908.598 230.24 910.358 230.8 911.542 231.92C912.726 233.04 913.318 234.64 913.318 236.72V249.776C913.318 250.256 913.43 250.64 913.654 250.928C913.878 251.184 914.15 251.312 914.47 251.312H915.958V253.808C915.318 254.16 914.518 254.336 913.558 254.336C912.63 254.336 911.83 254.08 911.158 253.568C910.518 253.056 910.102 252.368 909.91 251.504H909.67C909.062 252.464 908.262 253.216 907.27 253.76C906.31 254.272 905.222 254.528 904.006 254.528C902.438 254.528 901.03 254.064 899.782 253.136C898.534 252.208 897.91 250.496 897.91 248C897.91 245.024 898.918 242.992 900.934 241.904C902.95 240.784 905.862 240.224 909.67 240.224V237.248C909.67 236.032 909.398 235.104 908.854 234.464C908.342 233.824 907.398 233.504 906.022 233.504C904.742 233.504 903.814 233.856 903.238 234.56C902.694 235.264 902.422 236.112 902.422 237.104V237.68H898.87C898.838 237.52 898.822 237.184 898.822 236.672C898.822 234.624 899.494 233.04 900.838 231.92C902.214 230.8 904.022 230.24 906.262 230.24ZM909.67 243.488C907.014 243.488 905.014 243.792 903.67 244.4C902.358 244.976 901.702 246.096 901.702 247.76C901.702 249.04 901.958 249.952 902.47 250.496C903.014 251.04 903.814 251.312 904.87 251.312C906.118 251.312 907.222 250.8 908.182 249.776C909.174 248.752 909.67 247.344 909.67 245.552V243.488ZM928.291 252.8C927.523 255.68 926.547 257.936 925.363 259.568C924.211 261.2 922.691 262.016 920.803 262.016C919.779 262.016 918.915 261.904 918.211 261.68V259.136H919.459C921.795 259.136 923.331 257.424 924.067 254L916.963 230.768H920.947L924.307 242.72L925.267 245.984L926.083 248.816H926.227C926.387 248.08 926.659 246.976 927.043 245.504L927.715 242.768L930.547 230.768H934.195L928.291 252.8Z" fill="black"/>
</g>
<defs>
<filter id="filter0_f_9_2" x="-732" y="-734" width="1436" height="1413" filterUnits="userSpaceOnUse" color-interpolation-filters="sRGB">
<feFlood flood-opacity="0" result="BackgroundImageFix"/>
<feBlend mode="normal" in="SourceGraphic" in2="BackgroundImageFix" result="shape"/>
<feGaussianBlur stdDeviation="250" result="effect1_foregroundBlur_9_2"/>
</filter>
<filter id="filter1_bf_9_2" x="475.724" y="-132.255" width="942.793" height="804.765" filterUnits="userSpaceOnUse" color-interpolation-filters="sRGB">
<feFlood flood-opacity="0" result="BackgroundImageFix"/>
<feGaussianBlur in="BackgroundImageFix" stdDeviation="52"/>
<feComposite in2="SourceAlpha" operator="in" result="effect1_backgroundBlur_9_2"/>
<feBlend mode="normal" in="SourceGraphic" in2="effect1_backgroundBlur_9_2" result="shape"/>
<feGaussianBlur stdDeviation="1" result="effect2_foregroundBlur_9_2"/>
</filter>
<filter id="filter2_bf_9_2" x="475.724" y="-132.255" width="942.793" height="804.765" filterUnits="userSpaceOnUse" color-interpolation-filters="sRGB">
<feFlood flood-opacity="0" result="BackgroundImageFix"/>
<feGaussianBlur in="BackgroundImageFix" stdDeviation="52"/>
<feComposite in2="SourceAlpha" operator="in" result="effect1_backgroundBlur_9_2"/>
<feBlend mode="normal" in="SourceGraphic" in2="effect1_backgroundBlur_9_2" result="shape"/>
<feGaussianBlur stdDeviation="1" result="effect2_foregroundBlur_9_2"/>
</filter>
<linearGradient id="paint0_linear_9_2" x1="15.5" y1="244" x2="1728" y2="225" gradientUnits="userSpaceOnUse">
<stop stop-color="#FBE8FA"/>
<stop offset="0.291667" stop-color="#FEECF4"/>
<stop offset="0.646146" stop-color="#FFEDEB"/>
<stop offset="1" stop-color="#FFECDF"/>
</linearGradient>
<clipPath id="clip0_9_2">
<rect width="1728" height="488" fill="white"/>
</clipPath>
<clipPath id="clip1_9_2">
<rect width="30.0666" height="31.2221" fill="white" transform="matrix(0.732067 0.681233 -0.830685 0.556742 939.936 208)"/>
</clipPath>
</defs>
</svg>
