<svg width="156" height="64" viewBox="0 0 156 64" fill="none" xmlns="http://www.w3.org/2000/svg">
<g clip-path="url(#clip0_111_8)">
<path d="M133.424 33.1986C133.474 31.4514 132.711 29.7502 131.28 28.4177C129.848 27.0852 127.846 26.214 125.655 25.9694C125.472 25.9471 125.286 25.9536 125.106 25.9886C124.927 26.0236 124.758 26.0865 124.61 26.1734C124.461 26.2604 124.336 26.3698 124.242 26.4953C124.147 26.6208 124.086 26.7598 124.06 26.9044C124.034 27.0489 124.045 27.196 124.092 27.3372C124.138 27.4784 124.22 27.6109 124.332 27.7269C124.444 27.8429 124.585 27.9402 124.745 28.013C124.905 28.0859 125.082 28.1329 125.265 28.1513C126.78 28.3205 128.163 28.9226 129.152 29.8434C130.142 30.7643 130.669 31.94 130.634 33.1475C130.626 33.4397 130.765 33.7226 131.02 33.934C131.276 34.1454 131.627 34.2679 131.997 34.2746C132.368 34.2813 132.726 34.1716 132.993 33.9697C133.261 33.7678 133.416 33.4902 133.425 33.198L133.424 33.1986Z" fill="#04101B"/>
<path d="M135.648 25.489C133.228 23.2308 129.808 21.7865 126.087 21.4506C125.903 21.4306 125.715 21.4399 125.536 21.4778C125.357 21.5157 125.189 21.5815 125.042 21.6714C124.895 21.7613 124.772 21.8734 124.681 22.0012C124.59 22.129 124.532 22.2698 124.511 22.4155C124.489 22.5613 124.505 22.7089 124.557 22.8497C124.609 22.9906 124.696 23.1218 124.813 23.2358C124.929 23.3498 125.074 23.4442 125.238 23.5134C125.401 23.5827 125.581 23.6255 125.766 23.6392C128.783 23.9152 131.555 25.0861 133.52 26.9149C135.486 28.7438 136.498 31.094 136.352 33.4899C136.339 33.6363 136.363 33.7832 136.423 33.922C136.483 34.0608 136.577 34.1888 136.701 34.2985C136.824 34.4081 136.974 34.4972 137.141 34.5605C137.309 34.6238 137.491 34.6601 137.676 34.6671C137.862 34.6742 138.047 34.6519 138.222 34.6016C138.396 34.5514 138.556 34.4741 138.693 34.3743C138.829 34.2745 138.938 34.1543 139.015 34.0207C139.091 33.887 139.133 33.7426 139.138 33.596C139.324 30.6413 138.076 27.7419 135.648 25.489Z" fill="#04101B"/>
<path d="M144.847 33.9174C144.972 29.9373 143.238 26.0602 139.976 23.0247C136.714 19.9892 132.152 18.0077 127.159 17.4578C126.975 17.4344 126.788 17.4402 126.607 17.4749C126.426 17.5095 126.256 17.5724 126.107 17.6597C125.957 17.747 125.831 17.857 125.737 17.9833C125.642 18.1096 125.58 18.2495 125.554 18.395C125.529 18.5404 125.54 18.6884 125.589 18.8303C125.637 18.9721 125.72 19.105 125.834 19.221C125.948 19.337 126.09 19.4339 126.252 19.5059C126.414 19.5779 126.593 19.6236 126.778 19.6403C131.09 20.116 135.031 21.828 137.849 24.4501C140.666 27.0721 142.164 30.4211 142.057 33.8591C142.048 34.1513 142.186 34.4345 142.44 34.6464C142.695 34.8584 143.046 34.9817 143.416 34.9893C143.786 34.9969 144.145 34.8881 144.413 34.6868C144.681 34.4856 144.838 34.2084 144.847 33.9163L144.847 33.9174Z" fill="#04101B"/>
</g>
<path d="M19.296 51.448V55H3.072V24.76H7.008V51.448H19.296ZM22.3174 23.08H25.9654V27.448H22.3174V23.08ZM22.3174 31.768H25.9654V55H22.3174V31.768ZM39.837 31.24C41.693 31.24 43.117 31.8 44.109 32.92C45.101 34.008 45.597 35.8 45.597 38.296V55H41.997V38.536C41.997 37.032 41.709 35.992 41.133 35.416C40.589 34.808 39.773 34.504 38.685 34.504C37.501 34.504 36.493 35.08 35.661 36.232C34.829 37.352 34.413 38.888 34.413 40.84V55H30.765V31.768H33.501L34.029 34.504H34.269C35.485 32.328 37.341 31.24 39.837 31.24ZM65.9944 31.768L59.1784 41.32L66.3784 55H62.2504L56.9704 44.44L54.5224 47.128V55H50.8744V23.08H54.5224V42.568L62.0104 31.768H65.9944ZM69.3533 55V24.76H80.1533C83.0973 24.76 85.3373 25.56 86.8733 27.16C88.4413 28.728 89.2253 30.856 89.2253 33.544C89.2253 36.232 88.4093 38.408 86.7773 40.072C85.1453 41.704 82.9373 42.52 80.1533 42.52H73.2893V55H69.3533ZM80.0573 38.968C81.6253 38.968 82.8573 38.472 83.7533 37.48C84.6813 36.488 85.1453 35.176 85.1453 33.544C85.1453 31.88 84.6973 30.584 83.8013 29.656C82.9373 28.728 81.6893 28.264 80.0573 28.264H73.2893V38.968H80.0573ZM100.262 31.24C102.598 31.24 104.358 31.8 105.542 32.92C106.726 34.04 107.318 35.64 107.318 37.72V50.776C107.318 51.256 107.43 51.64 107.654 51.928C107.878 52.184 108.15 52.312 108.47 52.312H109.958V54.808C109.318 55.16 108.518 55.336 107.558 55.336C106.63 55.336 105.83 55.08 105.158 54.568C104.518 54.056 104.102 53.368 103.91 52.504H103.67C103.062 53.464 102.262 54.216 101.27 54.76C100.31 55.272 99.2219 55.528 98.0059 55.528C96.4379 55.528 95.0299 55.064 93.7819 54.136C92.5339 53.208 91.9099 51.496 91.9099 49C91.9099 46.024 92.9179 43.992 94.9339 42.904C96.9499 41.784 99.8619 41.224 103.67 41.224V38.248C103.67 37.032 103.398 36.104 102.854 35.464C102.342 34.824 101.398 34.504 100.022 34.504C98.7419 34.504 97.8139 34.856 97.2379 35.56C96.6939 36.264 96.4219 37.112 96.4219 38.104V38.68H92.8699C92.8379 38.52 92.8219 38.184 92.8219 37.672C92.8219 35.624 93.4939 34.04 94.8379 32.92C96.2139 31.8 98.0219 31.24 100.262 31.24ZM103.67 44.488C101.014 44.488 99.0139 44.792 97.6699 45.4C96.3579 45.976 95.7019 47.096 95.7019 48.76C95.7019 50.04 95.9579 50.952 96.4699 51.496C97.0139 52.04 97.8139 52.312 98.8699 52.312C100.118 52.312 101.222 51.8 102.182 50.776C103.174 49.752 103.67 48.344 103.67 46.552V44.488ZM122.291 53.8C121.523 56.68 120.547 58.936 119.363 60.568C118.211 62.2 116.691 63.016 114.803 63.016C113.779 63.016 112.915 62.904 112.211 62.68V60.136H113.459C115.795 60.136 117.331 58.424 118.067 55L110.963 31.768H114.947L118.307 43.72L119.267 46.984L120.083 49.816H120.227C120.387 49.08 120.659 47.976 121.043 46.504L121.715 43.768L124.547 31.768H128.195L122.291 53.8Z" fill="black"/>
<defs>
<clipPath id="clip0_111_8">
<rect width="30.0666" height="31.2221" fill="white" transform="matrix(0.732067 0.681233 -0.830685 0.556742 133.936 9)"/>
</clipPath>
</defs>
</svg>
