<svg width="24" height="26" viewBox="0 0 24 26" fill="none" xmlns="http://www.w3.org/2000/svg">
<path d="M15.6479 15.744C15.4841 15.692 14.4489 15.239 15.0958 13.33H15.0865C16.7728 11.644 18.0614 8.931 18.0614 6.26C18.0614 2.153 15.2483 0 11.9788 0C8.70723 0 5.90953 2.152 5.90953 6.26C5.90953 8.942 7.19095 11.666 8.8875 13.348C9.54881 15.032 8.36627 15.657 8.11905 15.745C4.69506 16.947 0.677734 19.138 0.677734 21.301V22.112C0.677734 25.059 6.56363 25.729 12.0107 25.729C17.466 25.729 23.2778 25.059 23.2778 22.112V21.301C23.2778 19.073 19.2409 16.899 15.6479 15.744Z" fill="#767676"/>
</svg>
